<?xml version="1.0" encoding="UTF-8" standalone="no"?>
<svg
   width="27.328959"
   height="35.000832"
   viewBox="0 0 27.328959 35.000832"
   fill="none"
   version="1.1"
   id="svg4"
   sodipodi:docname="Logo.svg"
   inkscape:version="1.2.1 (9c6d41e410, 2022-07-14)"
   xmlns:inkscape="http://www.inkscape.org/namespaces/inkscape"
   xmlns:sodipodi="http://sodipodi.sourceforge.net/DTD/sodipodi-0.dtd"
   xmlns="http://www.w3.org/2000/svg"
   xmlns:svg="http://www.w3.org/2000/svg">
  <defs
     id="defs8" />
  <sodipodi:namedview
     id="namedview6"
     pagecolor="#505050"
     bordercolor="#ffffff"
     borderopacity="1"
     inkscape:showpageshadow="0"
     inkscape:pageopacity="0"
     inkscape:pagecheckerboard="1"
     inkscape:deskcolor="#505050"
     showgrid="false"
     inkscape:zoom="3.0772059"
     inkscape:cx="-126.57587"
     inkscape:cy="11.048984"
     inkscape:window-width="1904"
     inkscape:window-height="1009"
     inkscape:window-x="-8"
     inkscape:window-y="0"
     inkscape:window-maximized="0"
     inkscape:current-layer="svg4" />
  <path
     style="fill:#ffffff;stroke:none;stroke-width:0.409888;stroke-linecap:square;stroke-miterlimit:0"
     d="M 5,0 C 2.2300028,0 0,2.4143745 0,5.4140625 V 29.585938 C 0,32.585625 2.2300028,35 5,35 c 2.7699972,0 5,-2.414375 5,-5.414062 V 5.4140625 C 10,2.4143745 7.7699972,0 5,0 Z M 5,2 C 6.6619983,2 8,4.1380557 8,6.7949219 V 28.205078 C 8,30.861944 6.6619983,33 5,33 3.3380017,33 2,30.861944 2,28.205078 V 6.7949219 C 2,4.1380557 3.3380017,2 5,2 Z"
     id="rect1164" />
  <path
     id="rect1164-2"
     style="fill:#ffffff;stroke:none;stroke-width:0.409888;stroke-linecap:square;stroke-miterlimit:0"
     d="m 10,10.599609 v 2.828125 l 13.257812,13.257813 c 1.878687,1.878686 2.444741,4.33651 1.269532,5.511719 -1.175209,1.175208 -3.633034,0.611108 -5.511719,-1.267578 L 10,21.912109 v 2.828125 l 8.578125,8.580078 c 2.121097,2.121097 5.404599,2.251649 7.363281,0.292969 1.958681,-1.958683 1.828128,-5.244137 -0.292968,-7.365234 z" />
  <path
     id="path1398"
     style="fill:#ffffff;stroke:none;stroke-width:0.397391;stroke-linecap:square;stroke-miterlimit:0"
     d="M 13.900391,0 C 12.000451,0.01042576 7.1203664,0 5.2787638,0.00819253 5.7230188,0.49101283 8.6865452,1.4318824 8.9373573,2.0690113 13.900391,2 12.373724,2.0085992 13.900391,2 c 4.418278,0 8,3.581722 8,8 -0.0063,3.282669 -2.017315,6.228344 -5.072266,7.429688 l 1.498047,1.498046 C 21.726704,17.24945 23.885373,13.792101 23.900391,10 c 0,-5.5228475 -4.477153,-10 -10,-10 z"
     sodipodi:nodetypes="ccccccccc" />
</svg>
